<svg xmlns="http://www.w3.org/2000/svg" fill="none" viewBox="0 0 16 16">
    <path fill-rule="evenodd" clip-rule="evenodd"
        d="M3.562 15.143H3.53c-.812 0-1.417-.18-1.536-.216C1.3 14.718.898 14.33.82 14.254c-.077-.077-.473-.47-.688-1.18-.216-.71-.106-1.538-.089-1.671.124-.938.43-1.498.495-1.616a3.599 3.599 0 0 1 .95-1.115c.095-.072.58-.44 1.332-.65.127-.035.756-.209 1.642-.209.544 0 .893.046.97.056.431.056.71.124.771.14.34.083.547.17.593.19l.458.2-.282 2.135H5.583c-.19-.334-.414-.465-.46-.492-.266-.158-.523-.158-.57-.158-.042 0-.259 0-.517.102-.04.017-.253.103-.468.298a1.803 1.803 0 0 0-.567 1.119c-.01.07-.08.597-.016.885.064.288.204.443.233.474.028.03.174.185.443.274l.322.07.504.014c.075-.003.485-.019.939-.078 1.88-.338 2.317-2.19 2.537-2.685l.044-.11c.215-.516.483-.85.536-.915l.001-.002c.094-.123.582-.765 1.57-1.132l.058-.023c.08-.03.486-.185 1.023-.274.089-.014.543-.088 1.115-.088h.004c.57 0 1 .074 1.087.088.519.089.882.243.956.274.437.186.717.427.772.474.054.046.34.288.555.687.2.37.268.84.28.915.013.091.076.514-.003 1.152-.127 1.016-.469 1.598-.542 1.723-.417.715-.94 1.096-1.04 1.17-.1.073-.623.455-1.4.65-.129.031-.805.197-1.637.197-.087 0-.513 0-1.079-.076a3.626 3.626 0 0 1-.948-.26 3.071 3.071 0 0 1-.771-.488l-.269-.282c-1.333.827-3.294 1.011-3.592 1.04-.09.008-.656.063-1.117.066h-.004zm7.959-5.129c-.208.075-.334.179-.359.2-.146.125-.22.258-.236.283l-.148.32-.079.316-.04.27-.03.269-.006.32.063.325a.808.808 0 0 0 .16.293c.02.022.117.125.305.204.037.015.193.08.488.08s.466-.065.504-.08c.213-.079.338-.182.364-.204.15-.13.227-.266.241-.292.096-.163.14-.298.15-.326l.079-.32.044-.27.027-.269.005-.315c-.002-.027-.011-.163-.064-.32a.74.74 0 0 0-.476-.484c-.036-.015-.188-.079-.483-.079-.296 0-.47.065-.51.08zM4.89 5.904c1.185 0 1.855-.426 1.99-.645h.793l-.274 2.07H1.06l.274-2.07.622-.12.389-2.94-.592-.118L2.029 0h6.34l-.274 2.071H7.33c-.104-.184-.776-.646-1.849-.646l-.226 1.71 1.464-.31-.223 1.69-1.382-.31-.224 1.7zm7.276-.367c.208.003 1.983.029 2.527-.65h.798L15.17 7.33h-7.29l.273-2.071.622-.12c.13-.98.26-1.96.388-2.94l-.59-.128L8.847 0h4.658l-.274 2.071-.624.129-.44 3.337z" />
    <style>
        path { fill: #1C2326; }
        @media (prefers-color-scheme: dark) {
        path { fill: #FCFAF3; }
        }
    </style>
</svg>